<mxfile host="Electron" modified="2024-03-12T17:47:28.549Z" agent="Mozilla/5.0 (Macintosh; Intel Mac OS X 10_15_7) AppleWebKit/537.36 (KHTML, like Gecko) draw.io/21.7.5 Chrome/114.0.5735.289 Electron/25.8.1 Safari/537.36" etag="JPDCRWk3keN8DpmhClxT" version="21.7.5" type="device">
  <diagram name="Страница — 1" id="gRrQNO8CJLfubuJF5C9H">
    <mxGraphModel dx="1877" dy="649" grid="1" gridSize="10" guides="1" tooltips="1" connect="1" arrows="1" fold="1" page="1" pageScale="1" pageWidth="827" pageHeight="1169" math="0" shadow="0">
      <root>
        <mxCell id="0" />
        <mxCell id="1" parent="0" />
        <mxCell id="A-hZ0Uzk_SsytSI5pHqf-55" value="Просмотр заказов" style="ellipse;whiteSpace=wrap;html=1;" parent="1" vertex="1">
          <mxGeometry x="-220" y="800" width="160" height="80" as="geometry" />
        </mxCell>
        <mxCell id="A-hZ0Uzk_SsytSI5pHqf-56" value="Просмотр товаров" style="ellipse;whiteSpace=wrap;html=1;" parent="1" vertex="1">
          <mxGeometry x="-220" y="900" width="160" height="80" as="geometry" />
        </mxCell>
        <mxCell id="A-hZ0Uzk_SsytSI5pHqf-57" style="edgeStyle=orthogonalEdgeStyle;rounded=0;orthogonalLoop=1;jettySize=auto;html=1;entryX=0.5;entryY=0;entryDx=0;entryDy=0;" parent="1" source="A-hZ0Uzk_SsytSI5pHqf-59" target="A-hZ0Uzk_SsytSI5pHqf-61" edge="1">
          <mxGeometry relative="1" as="geometry" />
        </mxCell>
        <mxCell id="A-hZ0Uzk_SsytSI5pHqf-58" style="edgeStyle=orthogonalEdgeStyle;rounded=0;orthogonalLoop=1;jettySize=auto;html=1;entryX=0.5;entryY=0;entryDx=0;entryDy=0;" parent="1" source="A-hZ0Uzk_SsytSI5pHqf-59" target="A-hZ0Uzk_SsytSI5pHqf-60" edge="1">
          <mxGeometry relative="1" as="geometry" />
        </mxCell>
        <mxCell id="A-hZ0Uzk_SsytSI5pHqf-89" style="edgeStyle=orthogonalEdgeStyle;rounded=0;orthogonalLoop=1;jettySize=auto;html=1;exitX=0.5;exitY=0;exitDx=0;exitDy=0;exitPerimeter=0;entryX=0.5;entryY=1;entryDx=0;entryDy=0;" parent="1" source="A-hZ0Uzk_SsytSI5pHqf-59" target="A-hZ0Uzk_SsytSI5pHqf-56" edge="1">
          <mxGeometry relative="1" as="geometry" />
        </mxCell>
        <mxCell id="x5qpEptRhKlG3k-acpam-3" value="" style="edgeStyle=orthogonalEdgeStyle;rounded=0;orthogonalLoop=1;jettySize=auto;html=1;" parent="1" source="A-hZ0Uzk_SsytSI5pHqf-59" target="A-hZ0Uzk_SsytSI5pHqf-61" edge="1">
          <mxGeometry relative="1" as="geometry" />
        </mxCell>
        <mxCell id="A-hZ0Uzk_SsytSI5pHqf-59" value="Гость" style="shape=umlActor;verticalLabelPosition=bottom;verticalAlign=top;html=1;outlineConnect=0;" parent="1" vertex="1">
          <mxGeometry x="-155" y="1035" width="30" height="60" as="geometry" />
        </mxCell>
        <mxCell id="A-hZ0Uzk_SsytSI5pHqf-60" value="Авторизация&amp;nbsp;" style="ellipse;whiteSpace=wrap;html=1;" parent="1" vertex="1">
          <mxGeometry x="-110" y="1105" width="160" height="80" as="geometry" />
        </mxCell>
        <mxCell id="A-hZ0Uzk_SsytSI5pHqf-61" value="Регистрация" style="ellipse;whiteSpace=wrap;html=1;" parent="1" vertex="1">
          <mxGeometry x="-330" y="1105" width="160" height="80" as="geometry" />
        </mxCell>
        <mxCell id="A-hZ0Uzk_SsytSI5pHqf-62" value="Добавление товаров в корзину" style="ellipse;whiteSpace=wrap;html=1;" parent="1" vertex="1">
          <mxGeometry x="140" y="905" width="160" height="80" as="geometry" />
        </mxCell>
        <mxCell id="A-hZ0Uzk_SsytSI5pHqf-63" value="Оформление заказов" style="ellipse;whiteSpace=wrap;html=1;" parent="1" vertex="1">
          <mxGeometry x="140" y="1005" width="160" height="80" as="geometry" />
        </mxCell>
        <mxCell id="A-hZ0Uzk_SsytSI5pHqf-64" style="edgeStyle=orthogonalEdgeStyle;rounded=0;orthogonalLoop=1;jettySize=auto;html=1;entryX=0;entryY=0.5;entryDx=0;entryDy=0;" parent="1" source="A-hZ0Uzk_SsytSI5pHqf-67" target="A-hZ0Uzk_SsytSI5pHqf-62" edge="1">
          <mxGeometry relative="1" as="geometry" />
        </mxCell>
        <mxCell id="A-hZ0Uzk_SsytSI5pHqf-66" style="edgeStyle=orthogonalEdgeStyle;rounded=0;orthogonalLoop=1;jettySize=auto;html=1;entryX=0;entryY=0.5;entryDx=0;entryDy=0;" parent="1" source="A-hZ0Uzk_SsytSI5pHqf-67" target="A-hZ0Uzk_SsytSI5pHqf-63" edge="1">
          <mxGeometry relative="1" as="geometry" />
        </mxCell>
        <mxCell id="A-hZ0Uzk_SsytSI5pHqf-95" style="edgeStyle=orthogonalEdgeStyle;rounded=0;orthogonalLoop=1;jettySize=auto;html=1;exitX=0.5;exitY=0.5;exitDx=0;exitDy=0;exitPerimeter=0;entryX=0;entryY=0.5;entryDx=0;entryDy=0;" parent="1" source="A-hZ0Uzk_SsytSI5pHqf-67" target="A-hZ0Uzk_SsytSI5pHqf-62" edge="1">
          <mxGeometry relative="1" as="geometry" />
        </mxCell>
        <mxCell id="A-hZ0Uzk_SsytSI5pHqf-67" value="Покупатель" style="shape=umlActor;verticalLabelPosition=bottom;verticalAlign=top;html=1;outlineConnect=0;" parent="1" vertex="1">
          <mxGeometry x="60" y="965" width="30" height="60" as="geometry" />
        </mxCell>
        <mxCell id="A-hZ0Uzk_SsytSI5pHqf-72" value="Добавление товара в магазин" style="ellipse;whiteSpace=wrap;html=1;" parent="1" vertex="1">
          <mxGeometry x="140" y="635" width="160" height="80" as="geometry" />
        </mxCell>
        <mxCell id="A-hZ0Uzk_SsytSI5pHqf-73" value="Запрос на вывод средств" style="ellipse;whiteSpace=wrap;html=1;" parent="1" vertex="1">
          <mxGeometry x="140" y="735" width="160" height="80" as="geometry" />
        </mxCell>
        <mxCell id="A-hZ0Uzk_SsytSI5pHqf-87" style="edgeStyle=orthogonalEdgeStyle;rounded=0;orthogonalLoop=1;jettySize=auto;html=1;entryX=0;entryY=0.5;entryDx=0;entryDy=0;" parent="1" source="A-hZ0Uzk_SsytSI5pHqf-74" target="A-hZ0Uzk_SsytSI5pHqf-73" edge="1">
          <mxGeometry relative="1" as="geometry" />
        </mxCell>
        <mxCell id="A-hZ0Uzk_SsytSI5pHqf-88" style="edgeStyle=orthogonalEdgeStyle;rounded=0;orthogonalLoop=1;jettySize=auto;html=1;entryX=0;entryY=0.5;entryDx=0;entryDy=0;" parent="1" source="A-hZ0Uzk_SsytSI5pHqf-74" target="A-hZ0Uzk_SsytSI5pHqf-72" edge="1">
          <mxGeometry relative="1" as="geometry" />
        </mxCell>
        <mxCell id="A-hZ0Uzk_SsytSI5pHqf-96" style="edgeStyle=orthogonalEdgeStyle;rounded=0;orthogonalLoop=1;jettySize=auto;html=1;exitX=0.5;exitY=0.5;exitDx=0;exitDy=0;exitPerimeter=0;entryX=0;entryY=0.5;entryDx=0;entryDy=0;" parent="1" source="A-hZ0Uzk_SsytSI5pHqf-74" target="A-hZ0Uzk_SsytSI5pHqf-72" edge="1">
          <mxGeometry relative="1" as="geometry" />
        </mxCell>
        <mxCell id="A-hZ0Uzk_SsytSI5pHqf-74" value="Продавец&amp;nbsp;" style="shape=umlActor;verticalLabelPosition=bottom;verticalAlign=top;html=1;outlineConnect=0;" parent="1" vertex="1">
          <mxGeometry x="60" y="695" width="30" height="60" as="geometry" />
        </mxCell>
        <mxCell id="A-hZ0Uzk_SsytSI5pHqf-75" value="Обработка запросов на вывод средств" style="ellipse;whiteSpace=wrap;html=1;" parent="1" vertex="1">
          <mxGeometry x="-573" y="780" width="160" height="80" as="geometry" />
        </mxCell>
        <mxCell id="A-hZ0Uzk_SsytSI5pHqf-76" value="Удаление товаров" style="ellipse;whiteSpace=wrap;html=1;" parent="1" vertex="1">
          <mxGeometry x="-573" y="910" width="160" height="80" as="geometry" />
        </mxCell>
        <mxCell id="A-hZ0Uzk_SsytSI5pHqf-90" style="edgeStyle=orthogonalEdgeStyle;rounded=0;orthogonalLoop=1;jettySize=auto;html=1;entryX=1;entryY=0.5;entryDx=0;entryDy=0;" parent="1" source="A-hZ0Uzk_SsytSI5pHqf-78" target="A-hZ0Uzk_SsytSI5pHqf-75" edge="1">
          <mxGeometry relative="1" as="geometry" />
        </mxCell>
        <mxCell id="A-hZ0Uzk_SsytSI5pHqf-91" style="edgeStyle=orthogonalEdgeStyle;rounded=0;orthogonalLoop=1;jettySize=auto;html=1;entryX=1;entryY=0.5;entryDx=0;entryDy=0;" parent="1" source="A-hZ0Uzk_SsytSI5pHqf-78" target="A-hZ0Uzk_SsytSI5pHqf-76" edge="1">
          <mxGeometry relative="1" as="geometry" />
        </mxCell>
        <mxCell id="A-hZ0Uzk_SsytSI5pHqf-93" style="edgeStyle=orthogonalEdgeStyle;rounded=0;orthogonalLoop=1;jettySize=auto;html=1;entryX=0;entryY=0.5;entryDx=0;entryDy=0;" parent="1" source="A-hZ0Uzk_SsytSI5pHqf-78" target="A-hZ0Uzk_SsytSI5pHqf-55" edge="1">
          <mxGeometry relative="1" as="geometry" />
        </mxCell>
        <mxCell id="A-hZ0Uzk_SsytSI5pHqf-94" style="edgeStyle=orthogonalEdgeStyle;rounded=0;orthogonalLoop=1;jettySize=auto;html=1;entryX=0;entryY=0.5;entryDx=0;entryDy=0;" parent="1" source="A-hZ0Uzk_SsytSI5pHqf-78" target="A-hZ0Uzk_SsytSI5pHqf-56" edge="1">
          <mxGeometry relative="1" as="geometry" />
        </mxCell>
        <mxCell id="A-hZ0Uzk_SsytSI5pHqf-78" value="Модератор" style="shape=umlActor;verticalLabelPosition=bottom;verticalAlign=top;html=1;outlineConnect=0;" parent="1" vertex="1">
          <mxGeometry x="-340" y="855" width="30" height="60" as="geometry" />
        </mxCell>
        <mxCell id="A-hZ0Uzk_SsytSI5pHqf-83" value="" style="endArrow=classic;html=1;rounded=0;exitX=0.5;exitY=0.5;exitDx=0;exitDy=0;exitPerimeter=0;entryX=1;entryY=0.5;entryDx=0;entryDy=0;" parent="1" source="A-hZ0Uzk_SsytSI5pHqf-74" target="A-hZ0Uzk_SsytSI5pHqf-55" edge="1">
          <mxGeometry width="50" height="50" relative="1" as="geometry">
            <mxPoint x="50" y="900" as="sourcePoint" />
            <mxPoint x="100" y="850" as="targetPoint" />
          </mxGeometry>
        </mxCell>
        <mxCell id="A-hZ0Uzk_SsytSI5pHqf-84" value="" style="endArrow=classic;html=1;rounded=0;exitX=0.5;exitY=0.5;exitDx=0;exitDy=0;exitPerimeter=0;entryX=1;entryY=0.5;entryDx=0;entryDy=0;" parent="1" source="A-hZ0Uzk_SsytSI5pHqf-74" target="A-hZ0Uzk_SsytSI5pHqf-56" edge="1">
          <mxGeometry width="50" height="50" relative="1" as="geometry">
            <mxPoint x="50" y="900" as="sourcePoint" />
            <mxPoint x="100" y="850" as="targetPoint" />
          </mxGeometry>
        </mxCell>
        <mxCell id="A-hZ0Uzk_SsytSI5pHqf-85" value="" style="endArrow=classic;html=1;rounded=0;exitX=0.5;exitY=0.5;exitDx=0;exitDy=0;exitPerimeter=0;entryX=1;entryY=0.5;entryDx=0;entryDy=0;" parent="1" source="A-hZ0Uzk_SsytSI5pHqf-67" target="A-hZ0Uzk_SsytSI5pHqf-55" edge="1">
          <mxGeometry width="50" height="50" relative="1" as="geometry">
            <mxPoint x="50" y="900" as="sourcePoint" />
            <mxPoint x="100" y="850" as="targetPoint" />
          </mxGeometry>
        </mxCell>
        <mxCell id="A-hZ0Uzk_SsytSI5pHqf-86" value="" style="endArrow=classic;html=1;rounded=0;exitX=0.5;exitY=0.5;exitDx=0;exitDy=0;exitPerimeter=0;entryX=1;entryY=0.5;entryDx=0;entryDy=0;" parent="1" source="A-hZ0Uzk_SsytSI5pHqf-67" target="A-hZ0Uzk_SsytSI5pHqf-56" edge="1">
          <mxGeometry width="50" height="50" relative="1" as="geometry">
            <mxPoint x="50" y="900" as="sourcePoint" />
            <mxPoint x="100" y="850" as="targetPoint" />
          </mxGeometry>
        </mxCell>
      </root>
    </mxGraphModel>
  </diagram>
</mxfile>
